<svg id="b7ac3f1a-25de-4760-8902-cd7bb412c52c" data-name="Camada 1" xmlns="http://www.w3.org/2000/svg" viewBox="0 0 32 32">
  <g>
    <path d="M23.5,14.88A9.57,9.57,0,0,0,16,11a8.81,8.81,0,0,0-1.46.13.5.5,0,0,0-.41.58.51.51,0,0,0,.58.41A7,7,0,0,1,16,12a8.6,8.6,0,0,1,6.71,3.48.5.5,0,0,1,0,.58A9.75,9.75,0,0,1,21,18a.5.5,0,0,0,.34.88.55.55,0,0,0,.33-.13,11.16,11.16,0,0,0,1.85-2.12A1.49,1.49,0,0,0,23.5,14.88Z" fill="#bebec8"/>
    <path d="M18.44,17.74a2.72,2.72,0,0,0,.43-.87A2.82,2.82,0,0,0,19,16a3,3,0,0,0-3-3,2.91,2.91,0,0,0-.89.14,2.79,2.79,0,0,0-.85.41L9.85,9.15a.49.49,0,0,0-.7.7l2.44,2.45a11,11,0,0,0-3.14,3.07,1.5,1.5,0,0,0,.05,1.75A9.57,9.57,0,0,0,16,21a8.11,8.11,0,0,0,3.49-.8l2.66,2.65a.48.48,0,0,0,.7,0,.48.48,0,0,0,0-.7Zm-3-3.65A2,2,0,0,1,16,14a2,2,0,0,1,2,2,1.9,1.9,0,0,1-.09.58,1.62,1.62,0,0,1-.2.42L15,14.29A2.6,2.6,0,0,1,15.41,14.09ZM14.29,15,17,17.71A2,2,0,0,1,16,18a2,2,0,0,1-1.71-3ZM16,20a8.59,8.59,0,0,1-6.71-3.49.48.48,0,0,1,0-.57,10,10,0,0,1,3-2.91l1.23,1.23a3,3,0,0,0,4.18,4.18l1,1A7,7,0,0,1,16,20Z" fill="#bebec8"/>
  </g>
</svg>
