<svg id="af0a5cfe-7fbf-4716-980c-199a24d17527" data-name="Camada 1" xmlns="http://www.w3.org/2000/svg" viewBox="0 0 32 32">
  <g>
    <path d="M23.5,14.88A9.57,9.57,0,0,0,16,11a8,8,0,0,0-2.33.34,8.18,8.18,0,0,0-.87.32,6.09,6.09,0,0,0-.63.3,10.74,10.74,0,0,0-3.72,3.41,1.5,1.5,0,0,0,.05,1.75A9.57,9.57,0,0,0,16,21a8.06,8.06,0,0,0,3.83-1,6.27,6.27,0,0,0,.62-.36,6.65,6.65,0,0,0,.67-.47,11.15,11.15,0,0,0,2.43-2.59A1.49,1.49,0,0,0,23.5,14.88Zm-.78,1.18a10.32,10.32,0,0,1-2.21,2.36q-.27.21-.6.42c-.17.11-.35.22-.54.32A7.13,7.13,0,0,1,16,20a8.59,8.59,0,0,1-6.71-3.49.48.48,0,0,1,0-.57,9.69,9.69,0,0,1,3.36-3.1c.18-.09.36-.18.56-.26A6.24,6.24,0,0,1,14,12.3a7,7,0,0,1,2-.3,8.6,8.6,0,0,1,6.71,3.48A.5.5,0,0,1,22.72,16.06Z" fill="#bebec8"/>
    <path d="M16,13a2.91,2.91,0,0,0-.89.14A3,3,0,0,0,16,19a3,3,0,0,0,2.87-2.13A2.82,2.82,0,0,0,19,16,3,3,0,0,0,16,13Zm1.91,3.58A2,2,0,0,1,14,16a2,2,0,0,1,2-2,2,2,0,0,1,2,2A1.9,1.9,0,0,1,17.91,16.58Z" fill="#bebec8"/>
  </g>
</svg>
